<svg xmlns="http://www.w3.org/2000/svg" width="742.186" height="1039.047" viewBox="0 0 742.186 1039.047"><defs><style>.a{fill:#fff;}.b{fill:#56ace0;}.c{fill:#ffc10d;}.d{fill:#194f82;}</style></defs><g transform="translate(-53.786)"><path class="a" d="M675.989,84.558H383.861v83c0,45.86-36.705,83-81.662,83s-81.662-37.3-81.662-83v-83H104.026a28.653,28.653,0,0,0-28.454,28.919V813.19a28.654,28.654,0,0,0,28.454,28.919H675.819a28.654,28.654,0,0,0,28.454-28.919V113.3C704.276,97.563,691.478,84.558,675.989,84.558Z" transform="translate(34.956 139.27)"/><path class="b" d="M97.358,744.348V110.516a4.133,4.133,0,0,1,4.042-4.108H608.539a4.133,4.133,0,0,1,4.042,4.108V744.348a4.133,4.133,0,0,1-4.042,4.108H101.4A4.132,4.132,0,0,1,97.358,744.348Z" transform="translate(69.912 175.257)"/><g transform="translate(414.272 375.955)"><path class="c" d="M244.9,206.712c17.51,0,31.822-14.545,31.822-32.341s-14.312-32.341-31.822-32.341-31.822,14.545-31.822,32.341C213.242,192.166,227.723,206.712,244.9,206.712Z" transform="translate(-158.69 -142.029)"/><path class="c" d="M278.4,220.832c-38.221,0-71.726,23.786-86.207,57.668H364.438C350.127,244.618,316.789,220.832,278.4,220.832Z" transform="translate(-192.194 -12.238)"/></g><path class="a" d="M177.936,192.877c13.637,0,24.92-11.464,24.92-25.327V84.558H153.019v83A25.174,25.174,0,0,0,177.936,192.877Z" transform="translate(159.221 139.27)"/><g transform="translate(53.786)"><path class="d" d="M279.853,300.262c48.827,0,88.564-40.214,88.564-90.01,0-49.624-39.568-90.01-88.564-90.01-48.827,0-88.564,40.214-88.564,90.01C191.458,259.877,231.193,300.262,279.853,300.262Zm0-122.182c17.51,0,31.822,14.545,31.822,32.341s-14.312,32.341-31.822,32.341-31.822-14.545-31.822-32.341C248.2,192.626,262.679,178.081,279.853,178.081Z" transform="translate(166.84 198.044)"/><path class="d" d="M317.877,199.046c-78.63,0-144.631,62.459-150.189,142.2a28.554,28.554,0,0,0,7.577,21.732,27.864,27.864,0,0,0,20.711,9.241h243.8a27.339,27.339,0,0,0,20.711-9.241,29.462,29.462,0,0,0,7.577-21.732C462.678,261.505,396.674,199.046,317.877,199.046ZM231.84,314.382c14.481-33.882,47.819-57.668,86.207-57.668s71.726,23.786,86.207,57.668Z" transform="translate(128.815 327.835)"/><path class="d" d="M527.017,317.091H141.78a28.923,28.923,0,0,0,0,57.838H527.017a28.654,28.654,0,0,0,28.454-28.919C555.3,330.1,542.675,317.091,527.017,317.091Z" transform="translate(41.747 522.259)"/><path class="d" d="M527.017,278.432H141.78a28.923,28.923,0,0,0,0,57.838H527.017a28.653,28.653,0,0,0,28.454-28.919C555.3,291.267,542.675,278.432,527.017,278.432Z" transform="translate(41.747 458.586)"/><path class="d" d="M141.715,289.984h43.1a28.923,28.923,0,0,0,0-57.838h-43.1a28.923,28.923,0,0,0,0,57.838Z" transform="translate(41.643 382.352)"/><path class="d" d="M141.65,243.826h87.387a28.923,28.923,0,0,0,0-57.838H141.65a28.923,28.923,0,0,0,0,57.838Z" transform="translate(41.538 306.328)"/><path class="d" d="M710.945,166.159H418.817V133.818C418.817,59.892,359.718,0,287.151,0,214.414,0,155.482,59.892,155.482,133.818V166.16h-16.5c-46.975,0-85.2,38.845-85.2,86.587V952.46c0,47.742,38.221,86.587,85.2,86.587H710.775c46.975,0,85.2-38.845,85.2-86.587V252.574C795.972,205,757.753,166.159,710.945,166.159ZM212.393,133.818c0-41.924,33.674-76.15,74.927-76.15s74.927,34.223,74.927,76.15V166.16H312.409v-4.278a28.458,28.458,0,1,0-56.909,0v4.278H212.4C212.393,166.159,212.393,133.818,212.393,133.818Zm149.684,90.01v83c0,13.86-11.28,25.327-24.92,25.327a25.177,25.177,0,0,1-24.92-25.327v-83ZM739.232,952.46a28.655,28.655,0,0,1-28.454,28.919H138.813a28.654,28.654,0,0,1-28.454-28.919V252.574a28.654,28.654,0,0,1,28.454-28.919H255.326v83c0,45.86,36.705,83,81.662,83,45.123,0,81.662-37.3,81.662-83v-83H710.609a28.653,28.653,0,0,1,28.454,28.919V952.46Z" transform="translate(-53.786)"/></g></g></svg>